# xmcd
#
# Track frame offsets: 
#        150
#        25686
#        51370
#        79444
#        103221
#        119305
#        160649
#        192165
#        211972
#        235968
#        250962
#        274656
#        301495
#
# Disc length: 4381 seconds
#
# Revision: 0
# Processed by: cddbd v1.5.2PL0 Copyright (c) Steve Scherf et al.
# Submitted via: ExactAudioCopy v1.3
#
DISCID=b2111b0d
DTITLE=Mauro Hector - Atitude Blues
DYEAR=2007
DGENRE=Blues
TTITLE0=Atitude Blues
TTITLE1=Na Calma
TTITLE2=Armadilha
TTITLE3=Tema pra Santos
TTITLE4=Identidade
TTITLE5=Saudade Blues
TTITLE6=Impressão Digital
TTITLE7=Novas Cores
TTITLE8=20 de Julho
TTITLE9=Lembranças
TTITLE10=Adrenalina
TTITLE11=Enigma
TTITLE12=Feedback
EXTD=
EXTT0=
EXTT1=
EXTT2=
EXTT3=
EXTT4=
EXTT5=
EXTT6=
EXTT7=
EXTT8=
EXTT9=
EXTT10=
EXTT11=
EXTT12=
PLAYORDER=
